<svg width="166" height="87" viewBox="0 0 166 87" fill="none" xmlns="http://www.w3.org/2000/svg">
<path fill-rule="evenodd" clip-rule="evenodd" d="M50.8536 0H37.4141V42.4385H0.511719V55.1702H37.4141V87H47.9477V55.1702H37.4142V42.4385H47.9477V20.9004H48.8558L58.3243 42.4385H69.424L50.8536 0ZM74.9952 55.1702L82.4546 72.2168H83.5443L91.0036 55.1702H102.078L88.0846 87H77.9142L63.9213 55.1702H74.9952ZM107.675 42.4385H96.5748L115.145 0H128.585V42.4385H118.051V20.9004H117.143L107.675 42.4385ZM118.051 55.1702V87H128.585V55.1702H118.051ZM165.487 42.4385H128.585V55.1702H165.487V42.4385Z" fill="white"/>
</svg>
