<svg width="27" height="27" viewBox="0 0 27 27" fill="none" xmlns="http://www.w3.org/2000/svg">
<path fill-rule="evenodd" clip-rule="evenodd" d="M18.0456 15.9398C19.2738 14.2789 20 12.2242 20 10C20 4.47715 15.5228 0 10 0C4.47715 0 0 4.47715 0 10C0 15.5228 4.47715 20 10 20C12.2242 20 14.2789 19.2738 15.9397 18.0456C15.9768 18.0929 16.0171 18.1385 16.0607 18.182L24.0916 26.2129C24.6773 26.7987 25.6271 26.7987 26.2129 26.2129C26.7987 25.6271 26.7987 24.6774 26.2129 24.0916L18.182 16.0607C18.1384 16.0171 18.0929 15.9768 18.0456 15.9398ZM10 17.7746C5.70621 17.7746 2.2254 14.2938 2.2254 10C2.2254 5.70621 5.70621 2.2254 10 2.2254C14.2938 2.2254 17.7746 5.70621 17.7746 10C17.7746 14.2938 14.2938 17.7746 10 17.7746Z" fill="white"/>
</svg>
